<svg width="116" height="27" viewBox="0 0 116 27" xmlns="http://www.w3.org/2000/svg"><g fill="#979CA3" fill-rule="evenodd"><path d="M13.31 13.407l2.634 4.94a8.45 8.45 0 0 1-6.097 2.595 8.445 8.445 0 0 1-5.153-1.75c1.56-3.716 4.991-8.86 9.735-13.845a8.46 8.46 0 0 1 3.889 7.123 8.429 8.429 0 0 1-.802 3.597c-1.548-.676-2.995-1.542-4.206-2.66zM3.236 17.764A8.472 8.472 0 0 1 13.531 4.84C8.844 8.9 5.257 13.696 3.236 17.764zm14.92-1.43a9.121 9.121 0 0 0 .853-3.864 9.155 9.155 0 0 0-4.091-7.632 65.945 65.945 0 0 1 4.75-4.43A41.37 41.37 0 0 0 14.1 4.354 9.163 9.163 0 0 0 .685 12.47c0 2.286.838 4.373 2.222 5.978-1.755 3.793-2.064 6.845-.517 7.876 1.656 1.104 5.256-.897 7.416-4.157 0 0-3.341 3.015-5.175 2.324-1.133-.428-1.135-2.156-.203-4.634a9.124 9.124 0 0 0 5.42 1.775c2.509 0 4.782-1.01 6.437-2.644l.326.612c3.994-.324 15.92-.637 15.92-.637 0-.576-7.899-.057-14.376-2.63zM72.82 11.629l1.494-1.983h-5.201l1.282-1.7h5.2l1.494-1.984H66.71l-7.14 9.478h10.38l1.493-1.982h-5.198l1.375-1.83zM80.03 5.962l-7.14 9.478h5.182l7.14-9.478zM97.291 5.962l-3.619 4.804-1.111-4.804h-4.05L81.37 15.44h3.429l3.586-4.76 1.101 4.76h4.094l7.14-9.478zM114.231 5.962h-8.326a4.357 4.357 0 0 0-3.488 1.74l-4.3 5.707a1.268 1.268 0 0 0 1.014 2.031h8.326a4.358 4.358 0 0 0 3.49-1.74l1.034-1.37h1.2l1.505-1.997h-6.377l-2.014 2.673a1.134 1.134 0 0 1-.905.45h-1.467a.33.33 0 0 1-.264-.527l3.417-4.533c.205-.274.533-.45.904-.45h1.467a.33.33 0 0 1 .263.527l-.555.736h5.177l.913-1.214a1.27 1.27 0 0 0-1.014-2.033zM56.671 8.473l-3.416 4.533a1.132 1.132 0 0 1-.904.45h-1.468a.33.33 0 0 1-.263-.527l3.416-4.532c.207-.273.535-.452.905-.452h1.467a.33.33 0 0 1 .263.528zm5.79-1.241c0-.7-.568-1.27-1.269-1.27h-8.324a4.36 4.36 0 0 0-3.49 1.74L45.08 13.41a1.268 1.268 0 0 0 1.014 2.031l8.325.001a4.36 4.36 0 0 0 3.49-1.74l4.3-5.705c.16-.213.253-.477.253-.764z"/><path d="M40.847 8.473l-.545.723c-.207.273-.535.45-.905.45H37.27l1.282-1.7h2.033a.33.33 0 0 1 .263.527zm-2.776 3.683l-.64.85a1.136 1.136 0 0 1-.906.452h-2.127l1.378-1.83h2.032a.329.329 0 0 1 .263.528zm4.808-1.222a4.366 4.366 0 0 0 2.518-1.63l.985-1.308a1.27 1.27 0 0 0-1.014-2.034H34.865l-7.142 9.478h5.089l5.78.001a4.362 4.362 0 0 0 3.491-1.74l1.007-1.338a1.015 1.015 0 0 0-.211-1.43v.001z"/></g></svg>