<svg width="93" height="27" viewBox="0 0 93 27" xmlns="http://www.w3.org/2000/svg"><g fill="#979CA3" fill-rule="evenodd"><path d="M78.857 24.661c1.277.128 2.552.265 3.825.408l2.81-7.162 2.672 7.822c1.371.177 2.74.363 4.107.557L87.588 12.57 92.273.631h-3.968l-.04.058-2.531 6.45L83.512.63h-3.917l4.044 11.844-4.782 12.186zM75.894 24.381V.631h-3.917v23.417c1.307.103 2.613.216 3.917.333M46.477 23.053c1.057 0 2.113.008 3.167.017v-8.726h4.705V10.63h-4.705V4.35h5.418V.63h-9.35v22.426c.255 0 .51-.004.765-.004M34.318 23.28c1.304-.048 2.61-.089 3.918-.122V4.351h3.66V.63h-11.24v3.72h3.662V23.28zM4.368 25.784v-14.15l4.637 13.579c1.425-.166 2.854-.321 4.285-.468V.632H9.533v14.656L4.53.632H.611v25.66h.023c1.242-.177 2.487-.345 3.734-.508M26.881 4.35V.63h-9.35v23.713c3.103-.277 6.216-.509 9.343-.697v-3.723c-1.808.108-3.612.233-5.411.372v-5.95h4.704v-3.717h-4.704V4.35h5.418zM62.824 19.745V.631H58.89v22.662c3.128.119 6.244.284 9.35.492V20.06c-1.802-.12-3.608-.225-5.417-.315"/></g></svg>