<svg width="30" height="32" xmlns="http://www.w3.org/2000/svg"><g fill="#000" fill-rule="evenodd"><path d="M10.146 24.008a1.07 1.07 0 0 1-1.078-1.06v-10.46a1.07 1.07 0 0 1 1.078-1.059 1.07 1.07 0 0 1 1.077 1.059v10.46c0 .586-.484 1.06-1.077 1.06z"/><path d="M13.145 20.017a1.07 1.07 0 0 1-1.077-1.059c0-.583.483-1.059 1.077-1.059 1.22 0 2.214-.975 2.214-2.176 0-1.2-.992-2.179-2.214-2.179h-3.002a1.07 1.07 0 0 1-1.077-1.059 1.07 1.07 0 0 1 1.077-1.058h3.002c2.408 0 4.369 1.926 4.369 4.296 0 2.368-1.96 4.294-4.369 4.294zM21.573 24.01c-1.187 0-2.317-.63-2.8-1.682a1.053 1.053 0 0 1 .538-1.401 1.088 1.088 0 0 1 1.426.529c.175.382.816.549 1.29.343.488-.218.573-.73.508-.953-.045-.153-.217-.527-.992-.589-2.003-.154-2.79-1.453-2.945-2.196-.327-1.103.217-2.72 1.718-3.39a3.389 3.389 0 0 1 2.316-.132c.825.25 1.486.81 1.82 1.532a1.055 1.055 0 0 1-.538 1.402 1.089 1.089 0 0 1-1.427-.53c-.107-.232-.353-.338-.488-.38a1.167 1.167 0 0 0-.795.04c-.497.22-.58.73-.514.953.044.155.217.53.992.591 2.002.154 2.79 1.453 2.945 2.196.324 1.1-.217 2.72-1.715 3.39-.434.189-.89.277-1.34.277z"/><path d="M5.199 31.421c-.27 0-.536-.095-.744-.291L.454 27.375a1.06 1.06 0 0 1-.334-.767V1.637A1.07 1.07 0 0 1 1.197.579h22.378a1.07 1.07 0 0 1 1.077 1.058v3.706a1.07 1.07 0 0 1-1.077 1.059 1.07 1.07 0 0 1-1.078-1.059V2.696H2.274v23.459l3.668 3.44c.43.405.446 1.074.037 1.498a1.087 1.087 0 0 1-.78.328z"/><path d="M28.803 31.421H5.2a1.07 1.07 0 0 1-1.078-1.058V9.513A1.07 1.07 0 0 1 5.2 8.452a1.07 1.07 0 0 1 1.077 1.06v19.79h21.45V6.514H5.2c-.282 0-.549-.109-.75-.3L.445 2.397A1.047 1.047 0 0 1 .424.9 1.094 1.094 0 0 1 1.947.877l3.688 3.518h23.168a1.07 1.07 0 0 1 1.077 1.058v24.91c0 .585-.48 1.058-1.077 1.058z"/></g></svg>