<svg width="94" height="23" viewBox="0 0 94 23" xmlns="http://www.w3.org/2000/svg"><path d="M93.454 17.555C89.55 23.987 83.34 22.121 81.49 20.65c-.786.515-2.18 1.669-4.03 1.522-3.929-.27-5.348-5.745-5.348-5.745.025.025-1.166.393-1.825.393 0 1.596-1.445 5.425-5.298 5.376-4.334-.049-5.196-6.284-5.196-6.284s-.43.589-2.078 1.153c.076-1.227.025 4.96-5.171 5.033-4.106.074-5.196-6.285-5.196-6.285s-.71.712-2.079.958c.076-1.252-.05 5.351-5.246 5.327-3.498-.025-4.69-3.928-4.614-4.468.127-.687-1.19 4.566-4.587 4.468-1.394-.05-2.459-1.031-3.118-2.332-.887.982-2.154 2.332-3.6 2.332-2.56 0-3.7-2.087-3.522-8.028.025-.712-.026-.982-.76-1.08-.432-.073-.888-.196-1.344-.27-.152.491-1.42 9.23-5.83 9.402-1.47.05-2.281-1.178-2.94-2.11-1.014 1.3-2.357 2.135-4.258 2.135-3.245 0-5.45-2.529-5.45-5.67 0-3.119 2.205-5.672 5.45-5.672.583 0 .735.074 1.267.221C5.652 1.55 8.187.052 10.392.052c2.13 0 5.78 4.787.66 16.963 1.14 3.634 3.598 3.413 4.764-4.05.229-1.522-.405-3.56.609-3.855 1.825-.515 2.027 1.056 2.864 1.302.912.27 1.445.245 2.306.417 1.496.27 2.054 1.055 1.876 2.774-.228 2.185-.608 5.352.558 5.72.836.27 2.357-1.4 2.636-2.308.279-.908.33-1.227.355-1.915.025-1.448.076-2.504.33-3.584.1-.417.227-.712.734-.712.406 0 1.14-.122 1.47.123.431.32.38.638.33 1.473-.507 12.03 3.371 6.04 4.537 1.227C34.015 8.177 34.294.15 37.817.003c1.825-.074 2.636 1.35 2.738 2.406.253 2.995-1.166 7.953-3.016 11.292-1.065 6.8 4.638 8.15 5.55 2.725-1.495-.687-3.092-3.461-1.8-4.812.736-.76 3.803.344 3.854 2.7 1.495-.392 1.698-1.202 1.723-1.08-.405-5.45-.025-13.109 3.498-13.231 1.825-.074 2.636 1.35 2.737 2.406.254 2.995-1.165 7.953-3.016 11.292-1.064 6.8 4.639 8.15 5.551 2.725-1.115-.196-3.422-3.167-2.078-4.812.71-.883 3.776.958 4.106 2.799 1.445-.393 1.647-1.178 1.647-1.056C58.906 7.907 59.286.248 62.81.125c1.825-.073 2.636 1.35 2.738 2.406.253 2.995-1.166 7.954-3.017 11.293-1.064 6.8 4.639 8.15 5.551 2.725-1.52-.246-3.675-3.363-1.926-4.96.684-.637 3.346 1.007 3.954 2.898.862-.025 1.394-.32 1.521-.344C70.261 7.76 71.275.101 75.077.027c2.053-.024 4.056 1.08 3.168 7.144-.836 5.794-3.852 8.224-3.852 8.273.177.687 1.723 6.506 5.627 3.437-.203-.442-.406-.884-.507-1.448-.634-3.192.633-6.776 4.055-7.365 1.977-.344 3.828.589 4.132 2.7.481 3.437-2.712 5.917-3.929 6.457-.558-.295 4.943 3.117 8.187-3.732.177-.393.406-.368.71-.147.152.196 1.343 1.301.786 2.21zM7.832 15.69a43.463 43.463 0 0 1-.634-1.989c-.659-.565-1.14-.638-1.977-.638-1.9 0-2.99 1.694-2.99 3.51 0 1.817 1.216 3.51 3.092 3.51 1.647 0 2.89-1.08 3.27-2.601-.28-.614-.533-1.154-.76-1.792zm2.535-13.06c-1.318 0-1.774 3.068-1.698 5.695.076 2.307.735 4.345 1.09 5.253.076.123.076.05.152.172 2.306-4.91 1.368-11.12.456-11.12zm27.653.098C36.297 2.53 36.322 9.454 36.525 11c.887-1.375 2.433-7.905 1.495-8.273zm12.521 0C48.818 2.53 48.843 9.454 49.046 11c.887-1.375 2.433-7.905 1.495-8.273zm12.42.098c-1.723-.197-1.698 6.726-1.495 8.273.912-1.375 2.459-7.905 1.495-8.273zm12.243-.491c-2.662.515-2.053 9.157-1.648 10.654 3.143-4.198 3.22-10.826 1.648-10.654zm10.012 10.777c-.127-.54-.811-.835-1.293-.761-1.343.172-2.636 1.792-2.129 4.271.101.54.406 1.056.38 1.032 3.016-1.964 3.27-3.511 3.042-4.542zm-56.6-4.124c-1.064 0-1.926-.835-1.926-1.89 0-1.056.862-1.89 1.926-1.89 1.065 0 1.927.834 1.927 1.89 0 1.055-.862 1.89-1.927 1.89z" fill="#979CA3" fill-rule="evenodd"/></svg>