<svg width="115" height="22" viewBox="0 0 115 22" xmlns="http://www.w3.org/2000/svg"><title>Facebook-logo</title><g fill="#979CA3" fill-rule="evenodd"><path d="M63.451 16.473c-.2 1.393-1.321 2.122-2.653 2.02a3.178 3.178 0 0 1-.904-.198c-1.074-.609-1.399-1.628-1.493-2.268l-.002.001c-.073-.99-.153-3.06.337-4.039.415-.75 1.14-1.159 2.1-1.19 1.366-.044 2.399.624 2.602 1.993a12.78 12.78 0 0 1 .013 3.681zm-.677-9.144c-1.713-.18-3.194.332-4.446 1.82V.027l-4.535.542v21.113h4.535V20.43c.611.431 1.206.95 1.902 1.196 2.642.935 6.126.173 7.345-3.317.782-2.239.762-4.534.173-6.799-.654-2.515-2.348-3.903-4.974-4.18zM79.036 16.246c-.015.094-.031.186-.052.277-.301 1.321-1.273 2.036-2.568 1.977-1.393-.063-2.349-.867-2.483-2.242a16.956 16.956 0 0 1-.02-3.034c.132-1.586 1.136-2.453 2.643-2.424 1.238.023 2.12.717 2.435 1.892.285 1.183.073 3.285.045 3.554zm-.192-8.656a9.178 9.178 0 0 0-4.74.003c-2.354.619-3.931 2.09-4.44 4.43-.277 1.277-.333 2.635-.26 3.944.169 2.995 2.044 5.129 4.954 5.791.041.01.084.017.126.027h-.001l.02.004c.113.022.225.043.337.06.038.002.076.006.113.01h.004c.14.025.31.044.488.058.57.06 1.295.102 1.9.032l.01-.002c.03 0 .062 0 .092-.002 3.006-.155 5.287-2.026 5.952-4.898.366-1.574.366-3.157.012-4.732C82.86 9.84 81.34 8.25 78.844 7.59zM10.774 7.516H7.537V5.391c.237-2.01 3.598-1.628 3.598-1.628V.309h-.003C11.016.28 4.446-1.258 3.142 3.68c0 .001 0 .003-.002.004l-.008.032c-.206.617-.192 3.445-.189 3.8H.138v3.78h2.98v10.285h4.337V11.297h3.318l.374-3.78h-.373M20.747 16.453c-.142 1.31-1.215 2.096-2.483 2.047-1.3-.05-2.16-.737-2.44-1.969-.337-1.752.057-3.834.09-4.003.34-1.176 1.206-1.758 2.477-1.729 1.248.028 2.21.758 2.35 2.035.133 1.194.136 2.424.006 3.619zm.372-7.128a8.63 8.63 0 0 0-.15-.161l-.021-.021-.107-.108c-1.022-1.026-1.407-1.281-2.207-1.514-3.077-.895-6.073.696-7.022 3.753-.582 1.88-.59 3.813-.25 5.715.74 4.12 3.842 5.5 7.15 4.82 1.014-.209 1.768-.833 2.468-1.702 0 0 .063-.076.14-.224v1.813h4.232V7.532H21.12v1.793zM38.277 20.681c-.197-.71-.42-1.409-.636-2.085l-.205-.752s-5.304 2.515-6.13-2.263a10.155 10.155 0 0 1 .056-2.381c.206-1.469 1.114-2.255 2.557-2.39a5.78 5.78 0 0 1 1.478.058c.657.11 1.299.305 2.018.48.25-.755.506-1.503.744-2.256.038-.117.07-.22.093-.31h.001l.12-.453a.54.54 0 0 0-.2-.183v.001c-.122-.101-.33-.185-.654-.302a8.586 8.586 0 0 0-.583-.187c-1.393-.393-2.823-.424-4.276-.272-3.063.319-5.142 2.104-5.719 5.051-.303 1.55-.289 3.12.059 4.675.52 2.33 1.95 3.834 4.274 4.507 1.516.439 3.07.461 4.616.223.65-.1 1.582-.433 2.252-.67l.254-.09-.12-.402v.001M48.16 13.209h-4.899c.026-.963.147-1.858 1.014-2.402.92-.578 1.936-.6 2.882-.082.956.522 1.031 1.465 1.004 2.484zm4.08 1.93c-.02-.98-.007-1.965-.148-2.928-.387-2.643-2.016-4.315-4.65-4.751-1.005-.167-2.069-.145-3.09-.048-2.796.263-4.918 1.983-5.353 4.571a16.256 16.256 0 0 0-.084 4.813c.322 2.372 1.491 3.883 3.515 4.609.01 0 .018.002.027.003v.002c.923.272 5.443 1.44 9.427-.538l-.16-.579-.005.001c-.185-.772-.407-1.537-.616-2.303l-.022-.075s-.083.03-.23.076h-.01a7.87 7.87 0 0 0-.517.154l-.095.03c-.603.167-1.465.374-2.376.49-.764.076-1.536.079-2.315.013-1.265-.207-2.234-.876-2.187-2.458h8.164l.178-.001s.532-.006.555-.011v-.156l-.009-.913zM114.073 7.68h-4.81l-4.177 6.45V.04l-4.535.542v21.114h4.535v-6.461l4.177 6.47h4.81l-4.533-7.024 4.533-7.001M94.501 16.244c-.015.093-.03.185-.052.277-.302 1.321-1.273 2.035-2.568 1.977-1.393-.065-2.348-.868-2.483-2.242a16.975 16.975 0 0 1-.021-3.034c.134-1.587 1.138-2.454 2.645-2.425 1.236.024 2.119.717 2.434 1.893.284 1.182.074 3.285.045 3.554zm-.191-8.656a9.177 9.177 0 0 0-4.74.002c-2.354.62-3.932 2.09-4.44 4.43-.278 1.278-.333 2.635-.26 3.944.167 2.996 2.043 5.13 4.953 5.792.042.01.085.017.126.026l.02.004c.112.022.225.043.337.06a2.767 2.767 0 0 0 .116.01c.143.025.31.045.488.059.57.06 1.297.102 1.901.032l.01-.002c.031 0 .062 0 .091-.002 3.006-.155 5.287-2.028 5.953-4.898.365-1.574.365-3.157.013-4.733-.555-2.474-2.073-4.065-4.568-4.724z"/></g></svg>