<svg width="38" height="38" viewBox="0 0 38 38" xmlns="http://www.w3.org/2000/svg"><path d="M19.03 37.987c-.188 0-.375-.003-.563-.009l3.874-10.647h5.332c.936 0 1.963-.72 2.283-1.598l4.203-11.545c.687-1.89-.395-3.436-2.406-3.436h-7.397L18.15 27.805h-.002l-3.518 9.667C6.283 35.488.075 27.985.075 19.031.075 10.335 5.93 3.008 13.913.774l-3.63 9.978h-.001l-6.035 16.58h4.017l5.132-14.089h3.02l-5.133 14.089H15.3l4.783-13.144c.688-1.89-.395-3.436-2.404-3.436h-3.377L18.179.095c.282-.013.566-.02.852-.02C29.5.075 37.987 8.56 37.987 19.03c0 10.469-8.487 18.956-18.956 18.956zM30.5 13.233h-3.018l-4.227 11.598h3.018L30.5 13.233z" fill="#979CA3" fill-rule="evenodd"/></svg>