<svg xmlns="http://www.w3.org/2000/svg" width="79" height="77" viewBox="0 0 79 77">
    <g fill="none" fill-rule="evenodd">
        <path fill="#FFB8D7" d="M3.997 10.003C3.997 6.687 6.683 4 9.99 4h59.015a5.995 5.995 0 0 1 5.992 6.003v56.994c0 3.316-2.685 6.003-5.992 6.003H9.99a5.995 5.995 0 0 1-5.993-6.003V10.003z"/>
        <g fill="#000" transform="translate(39 38)">
            <rect width="9" height="9" rx="1"/>
            <rect width="9" height="9" y="18" rx="1"/>
            <rect width="9" height="9" x="9" y="9" rx="1"/>
            <rect width="9" height="9" x="18" rx="1"/>
            <rect width="9" height="9" x="18" y="18" rx="1"/>
        </g>
        <path fill="#000" fill-rule="nonzero" d="M2 9v59c0 3.863 3.136 7 7.005 7h60.99A6.997 6.997 0 0 0 77 68V9c0-3.863-3.136-7-7.005-7H9.005A6.997 6.997 0 0 0 2 9zM0 9c0-4.974 4.026-9 9.005-9h60.99C74.967 0 79 4.03 79 9v59c0 4.974-4.026 9-9.005 9H9.005C4.033 77 0 72.97 0 68V9z"/>
        <text fill="#000" stroke="#000" stroke-width=".3" font-family="VAGRounded-Light, VAG Rounded" font-size="24" transform="translate(-.203 -.165)">
            <tspan x="13.372" y="64">X</tspan>
        </text>
        <text fill="#000" stroke="#000" stroke-width=".3" font-family="VAGRounded-Light, VAG Rounded" font-size="14.3" letter-spacing=".306" transform="translate(-.203 -.165)">
            <tspan x="11.061" y="23">Pixel Grid</tspan>
        </text>
    </g>
</svg>
