<svg xmlns="http://www.w3.org/2000/svg" width="43" height="29" viewBox="0 0 43 29">
    <g fill="#0433FF" fill-rule="evenodd">
        <path d="M38.521 28.716H4.48C2.009 28.716 0 26.72 0 24.274V4.726C0 2.28 2.009.284 4.479.284H38.52C40.991.284 43 2.28 43 4.726v19.548c0 2.447-2.009 4.442-4.479 4.442zM4.48 2.06c-1.482 0-2.687 1.196-2.687 2.665v19.548c0 1.47 1.205 2.665 2.687 2.665H38.52c1.482 0 2.687-1.196 2.687-2.665V4.726c0-1.47-1.205-2.665-2.687-2.665H4.48z"/>
        <path d="M13.438 19.83H6.27a.892.892 0 0 1-.896-.888c0-.49.4-.888.896-.888h7.167c.495 0 .895.397.895.888s-.4.889-.895.889zM18.812 23.385H6.272a.892.892 0 0 1-.897-.889c0-.49.4-.888.896-.888h12.541c.496 0 .896.397.896.888s-.4.889-.896.889zM25.979 14.5c-4.329 0-8.213-2.872-9.446-6.983a2.57 2.57 0 0 1 .423-2.297c.66-.884 1.83-1.286 2.878-.975 4.145 1.221 7.041 5.073 7.041 9.367 0 .49-.4.888-.896.888zm-6.884-8.587a.9.9 0 0 0-.704.369.805.805 0 0 0-.14.728c.918 3.059 3.625 5.277 6.774 5.655a8.072 8.072 0 0 0-5.702-6.721.915.915 0 0 0-.228-.031z"/>
        <path d="M25.979 14.5a.892.892 0 0 1-.896-.888c0-4.294 2.896-8.146 7.041-9.37 1.048-.31 2.216.094 2.879.976.506.67.658 1.51.423 2.296-1.234 4.114-5.118 6.986-9.447 6.986zm6.884-8.587a.908.908 0 0 0-.228.033c-3.084.911-5.323 3.598-5.702 6.721 3.15-.377 5.859-2.596 6.775-5.655a.805.805 0 0 0-.141-.728.893.893 0 0 0-.704-.371z"/>
        <path d="M25.979 28.716a.892.892 0 0 1-.896-.889V1.173c0-.491.401-.889.896-.889s.896.398.896.889v26.654c0 .491-.4.889-.896.889z"/>
        <path d="M20.604 19.83a.899.899 0 0 1-.634-.259.885.885 0 0 1 0-1.257l5.375-5.331a.903.903 0 0 1 1.268 0c.35.346.35.91 0 1.257l-5.375 5.331a.899.899 0 0 1-.634.26z"/>
        <path d="M31.354 19.83a.899.899 0 0 1-.634-.259l-5.375-5.33a.885.885 0 0 1 0-1.258.903.903 0 0 1 1.268 0l5.375 5.33c.35.347.35.912 0 1.258a.899.899 0 0 1-.634.26z"/>
        <path d="M42.104 14.5H.896A.892.892 0 0 1 0 13.612c0-.491.4-.889.896-.889h41.208c.495 0 .896.398.896.889 0 .49-.4.888-.896.888z"/>
    </g>
</svg>
