<svg xmlns="http://www.w3.org/2000/svg" width="64" height="52" viewBox="0 0 64 52">
    <path fill="#0433FF" fill-rule="nonzero" d="M58.793.42H5.886L0 8.72v.42c0 2.263 1.62 4.193 3.926 4.865V51.58h55.38V14.09c2.39-.586 4.18-2.601 4.18-4.947V8.81L58.793.42zM53.59 12.413a5.853 5.853 0 0 0 3.156 1.762v2.598H46.08v12.581h10.666v3.607H40.96c-.087-3.774-2.39-6.375-6.23-7.381a5.489 5.489 0 0 0 1.963-4.194c0-3.02-2.473-5.451-5.547-5.451-3.073 0-5.546 2.43-5.546 5.451 0 1.678.766 3.188 1.963 4.194-3.84 1.006-6.143 3.607-6.23 7.381H6.487v-3.607h10.58v-12.58H6.486v-2.602A5.586 5.586 0 0 0 9.9 12.41a5.893 5.893 0 0 0 4.267 1.845 5.893 5.893 0 0 0 4.266-1.845 5.893 5.893 0 0 0 4.267 1.845 5.893 5.893 0 0 0 4.267-1.845 5.893 5.893 0 0 0 4.266 1.845A5.893 5.893 0 0 0 35.5 12.41a5.893 5.893 0 0 0 4.267 1.845c1.793 0 3.67-.754 4.95-2.012a5.966 5.966 0 0 0 4.436 2.012c1.877.003 3.414-.75 4.437-1.841zm2.73 6.876v7.549h-7.68V19.29h7.68zm-25.174 5.033c-1.62 0-2.986-1.344-2.986-2.936 0-1.592 1.366-2.935 2.986-2.935s2.987 1.343 2.987 2.935-1.367 2.936-2.987 2.936zm7.254 8.64H23.893c.17-4.699 5.12-5.285 7.253-5.285 2.134 0 7.084.504 7.254 5.284zM6.826 26.838v-7.548h7.68v7.548h-7.68zM14.42 2.936h4.693L17.15 8.974v.167c0 1.425-1.367 2.601-2.987 2.601-1.537 0-2.817-1.005-2.987-2.349l3.244-6.375v-.082zm12.12 0l-.767 6.038v.167c0 1.425-1.367 2.601-2.987 2.601s-2.9-1.09-2.987-2.43l2.134-6.376h4.606zm7.08 0l.683 6.29c0 1.425-1.367 2.516-2.987 2.516s-2.987-1.09-2.987-2.516l.767-6.29h4.523zm7.68 0l2.473 6.29v.167c-.254 1.176-2.13 2.35-3.837 2.35-1.62 0-2.987-1.174-2.987-2.602v-.252l-.683-5.957 5.033.004zm8.023 8.806c-1.537 0-2.817-1.006-2.987-2.349V8.89l-2.303-5.957h5.12l3.156 6.458c-.17 1.346-1.45 2.352-2.986 2.352zM2.559 9.478l4.607-6.542h4.353L8.533 8.892v.334c0 1.425-1.367 2.602-2.987 2.602-1.537-.086-2.73-1.091-2.987-2.35zm3.927 39.587V35.478h50.26v13.587H6.486zm51.453-37.323c-1.62 0-2.986-1.173-2.986-2.601 0-.334-.087-.587-.34-.839L51.966 2.85h5.29l3.67 6.543c-.17 1.343-1.45 2.35-2.987 2.35z"/>
</svg>
