<svg xmlns="http://www.w3.org/2000/svg" width="29" height="41" viewBox="0 0 29 41">
    <g fill="none" fill-rule="evenodd">
        <path stroke="#0433FF" stroke-linecap="round" stroke-linejoin="round" stroke-width="2" d="M19.135 21.132H9.853c-4.808 0-8.694 3.847-8.694 8.58v8.123c0 .979.8 1.77 1.795 1.77h23.08c.995 0 1.807-.791 1.807-1.77v-8.123c0-4.733-3.899-8.58-8.706-8.58zM7.724 12.312c0 3.679 3.033 6.666 6.77 6.666 3.737 0 6.77-2.983 6.77-6.666 0-2.023-.916-3.84-2.366-5.06a3.63 3.63 0 0 0 .448-1.734c.002-2.276-2.171-4.124-4.852-4.124-2.677 0-4.851 1.848-4.851 4.125 0 .62.16 1.203.447 1.735a6.6 6.6 0 0 0-2.366 5.058z"/>
        <path fill="#0433FF" d="M22.86 30.998c-.066.06-3.186 3.12-4.334 4.247a.6.6 0 0 1-.842 0l-4.33-4.247a3.275 3.275 0 0 1 0-4.689 3.405 3.405 0 0 1 4.754-.012 3.402 3.402 0 0 1 4.752.012 3.282 3.282 0 0 1 0 4.689z"/>
    </g>
</svg>
