<svg xmlns="http://www.w3.org/2000/svg" width="97" height="77" viewBox="0 0 97 77">
    <g fill="none" fill-rule="evenodd">
        <path fill="#FDBD39" d="M15.427 53.072l-5.043 1.84-.27 14.98 17.456-6.368c-5.988-2.009-10.36-5.542-12.143-10.452"/>
        <path fill="#F69833" d="M18.066 37.23L.57 43.61l9.814 11.3 5.043-1.839c-1.778-4.895-.681-10.43 2.639-15.843"/>
        <path fill="#FECF33" d="M47.51 15.615c-22.28 8.127-36.644 24.897-32.083 37.457l80.683-29.43c-4.561-12.56-26.32-16.154-48.6-8.027"/>
        <path fill="#EE6723" d="M64.028 61.099c22.28-8.127 36.67-24.823 32.082-37.457l-80.683 29.43c4.588 12.635 26.32 16.154 48.6 8.027"/>
        <path fill="#F69833" d="M96.11 23.642l-80.683 29.43c1.58 4.35 7.605 6.494 16.058 6.494 8.242 0 18.791-2.036 29.79-6.048 22.28-8.127 37.955-21.285 34.835-29.876"/>
        <path fill="#FDBD39" d="M80.052 17.148c-8.241 0-18.79 2.036-29.79 6.048-22.28 8.127-37.955 21.285-34.835 29.876l80.683-29.43c-1.58-4.35-7.604-6.494-16.058-6.494"/>
        <path fill="#EE6723" fill-rule="nonzero" d="M75.596 70.684c-2.374 0-5.876-2.14-10.41-6.363-5.363-4.996-11.506-12.313-17.298-20.604-5.792-8.29-10.552-16.578-13.402-23.337-3.105-7.367-3.548-11.896-1.316-13.462.49-.344 1.08-.517 1.753-.517 1.816 0 5.354 1.35 11.895 7.78l.143.14-.02.2c-.044.462-.085.928-.122 1.385l-.073.909-.642-.646c-7.048-7.09-10.15-7.855-11.157-7.855-.288 0-.516.058-.68.173-.968.68-1.03 4.006 1.98 11.147 2.8 6.639 7.49 14.802 13.207 22.985C55.17 50.802 61.22 58.01 66.488 62.917c5.68 5.29 8.24 5.862 9.076 5.862.289 0 .524-.062.698-.184 1.021-.717 1.022-4.28-2.335-11.966l-.154-.353.338-.185c.337-.184.663-.366.97-.54l.403-.229.187.426c2.38 5.446 4.605 12.368 1.688 14.416-.492.345-1.085.52-1.763.52zm0-.84v.42-.42z"/>
        <path fill="#EE6723" d="M64.569 60.87l-.034.418c-.563 6.96-2.046 15.326-5.913 15.665a2.71 2.71 0 0 1-.24.01c-2.627 0-5.112-3.758-7.386-11.17-2.152-7.013-3.822-16.428-4.703-26.511-.88-10.082-.867-19.645.038-26.927C47.316 4.42 49.193.275 51.907.038c.08-.008.164-.012.246-.012 1.906 0 4.778 2.155 7.718 12.19l-1.92.37c-.982-3.353-2.051-6.08-3.114-7.955-.982-1.734-1.937-2.688-2.69-2.688a.872.872 0 0 0-.074.003c-1.176.103-2.89 2.953-3.845 10.646-.889 7.151-.9 16.57-.03 26.523.869 9.953 2.511 19.228 4.625 26.115.946 3.084 1.984 5.626 3.002 7.351.938 1.59 1.846 2.467 2.557 2.467a.869.869 0 0 0 .073-.004c1.126-.098 3.247-3.064 4.14-13.498l1.974-.677"/>
    </g>
</svg>
