<svg width="29" height="41" viewBox="0 0 29 41" xmlns="http://www.w3.org/2000/svg"><g fill="#000" fill-rule="evenodd"><path d="M19.135 20.132H9.853C4.5 20.132.16 24.42.16 29.712v8.123c0 1.535 1.25 2.77 2.794 2.77h23.08c1.544 0 2.807-1.235 2.807-2.77v-8.123c0-5.29-4.35-9.58-9.705-9.58zm0 2c4.257 0 7.706 3.4 7.706 7.58v8.123c0 .42-.357.77-.806.77H2.954a.78.78 0 0 1-.795-.77v-8.123c0-4.182 3.44-7.58 7.693-7.58h9.282zM6.724 12.312c0 4.235 3.484 7.666 7.77 7.666 4.287 0 7.77-3.428 7.77-7.666a7.596 7.596 0 0 0-2.722-5.825l-.644.765.88.476c.37-.685.568-1.436.568-2.21.002-2.867-2.652-5.124-5.852-5.124-3.197 0-5.85 2.257-5.85 5.125 0 .773.195 1.52.566 2.21l.88-.476-.644-.765a7.597 7.597 0 0 0-2.722 5.822zm2 0c0-1.672.743-3.225 2.01-4.293a1 1 0 0 0 .237-1.24 2.626 2.626 0 0 1-.327-1.26c0-1.686 1.693-3.126 3.85-3.126 2.16 0 3.854 1.44 3.853 3.123 0 .436-.112.86-.328 1.26a1 1 0 0 0 .236 1.24 5.597 5.597 0 0 1 2.01 4.295c0 3.126-2.58 5.666-5.77 5.666-3.188 0-5.77-2.543-5.77-5.666z"/><path d="M22.86 30.998c-.066.06-3.186 3.12-4.334 4.247a.6.6 0 0 1-.842 0c-1.148-1.126-4.27-4.186-4.33-4.247a3.275 3.275 0 0 1 0-4.69 3.405 3.405 0 0 1 4.754-.01 3.402 3.402 0 0 1 4.752.01 3.282 3.282 0 0 1 0 4.69z"/></g></svg>