<svg width="189" height="31" viewBox="0 0 189 31" xmlns="http://www.w3.org/2000/svg"><g fill="#000" fill-rule="evenodd"><path d="M52.142 1.664c-1.006 0-1.91.175-2.712.524-.8.35-1.48.797-2.034 1.34a5.915 5.915 0 0 0-1.28 1.82c-.297.668-.446 1.32-.446 1.957 0 1.192.256 2.142.77 2.85a6.09 6.09 0 0 0 1.927 1.727c.77.442 1.608.807 2.512 1.095.903.287 1.74.595 2.51.924.77.33 1.414.74 1.927 1.234.514.493.77 1.17.77 2.034 0 .617-.102 1.192-.307 1.727a4.197 4.197 0 0 1-2.312 2.39c-.555.235-1.182.353-1.88.353-.7 0-1.305-.088-1.82-.262a9.02 9.02 0 0 1-1.37-.586c-.4-.216-.745-.41-1.033-.585-.288-.175-.545-.262-.77-.262-.39 0-.68.138-.864.416a1.71 1.71 0 0 0-.276.97c0 .39.18.744.54 1.063.36.318.83.596 1.417.832.587.236 1.244.42 1.974.555.73.134 1.454.2 2.173.2 1.192 0 2.25-.19 3.175-.57.924-.38 1.7-.89 2.327-1.526a6.498 6.498 0 0 0 1.432-2.22c.33-.84.493-1.715.493-2.62 0-1.232-.257-2.223-.77-2.973a6.14 6.14 0 0 0-1.927-1.818 11.84 11.84 0 0 0-2.512-1.125 28.186 28.186 0 0 1-2.512-.925c-.77-.328-1.413-.724-1.926-1.186-.514-.463-.77-1.094-.77-1.896 0-.925.328-1.675.985-2.25.658-.575 1.49-.863 2.497-.863.678 0 1.228.072 1.65.216.42.144.78.308 1.078.493.298.185.56.35.786.493.226.143.493.215.8.215.35 0 .633-.118.85-.355.215-.236.323-.518.323-.847 0-.35-.155-.683-.463-1.002-.308-.317-.714-.59-1.217-.816a8.32 8.32 0 0 0-1.726-.54 9.812 9.812 0 0 0-1.988-.2zm9.278 20.868c0 .452.124.806.37 1.063.247.257.575.385.986.385.41 0 .74-.128.987-.385.246-.257.37-.61.37-1.063v-6.535l6.842 7.15c.33.33.59.55.786.664.197.114.46.17.787.17.288 0 .55-.102.786-.308a.98.98 0 0 0 .355-.77c0-.268-.04-.5-.123-.694-.083-.195-.257-.426-.524-.694l-7.15-7.058 6.164-4.87c.267-.206.447-.4.54-.586.092-.185.138-.38.138-.585 0-.35-.102-.637-.308-.863-.205-.226-.483-.34-.832-.34-.226 0-.468.078-.725.232-.256.154-.53.354-.816.6l-5.917 4.963V1.45c0-.453-.124-.808-.37-1.065C63.516.128 63.187 0 62.776 0c-.41 0-.74.128-.986.385s-.37.612-.37 1.064V22.53zm26.2-5.888c.596 0 .996-.123 1.202-.37.205-.246.308-.606.308-1.078 0-.987-.16-1.957-.478-2.913a8.286 8.286 0 0 0-1.37-2.558 6.853 6.853 0 0 0-2.22-1.82c-.884-.46-1.88-.692-2.99-.692-1.15 0-2.184.226-3.098.678a6.857 6.857 0 0 0-2.312 1.835 8.428 8.428 0 0 0-1.448 2.68 10.02 10.02 0 0 0-.51 3.19c0 1.09.145 2.14.432 3.145.288 1.007.74 1.9 1.357 2.682a6.667 6.667 0 0 0 2.342 1.865c.945.462 2.076.693 3.39.693.802 0 1.593-.113 2.374-.34a10.65 10.65 0 0 0 2.11-.846c.627-.34 1.13-.704 1.51-1.095.38-.39.57-.75.57-1.08 0-.39-.102-.688-.307-.893-.206-.206-.432-.308-.678-.308-.247 0-.51.112-.786.338-.28.226-.618.477-1.018.755-.4.277-.9.534-1.495.77-.596.237-1.346.355-2.25.355-.76 0-1.44-.13-2.035-.385a4.482 4.482 0 0 1-1.525-1.064c-.422-.453-.74-.982-.956-1.588a5.795 5.795 0 0 1-.323-1.958H87.62zM77.417 14.61c.02-.616.12-1.233.293-1.85a4.863 4.863 0 0 1 .817-1.648c.37-.483.843-.874 1.418-1.172.575-.298 1.284-.426 2.127-.385.74 0 1.387.154 1.942.462a4.107 4.107 0 0 1 1.356 1.187c.35.483.61 1.022.786 1.618a6.33 6.33 0 0 1 .262 1.788h-9zm15.165-7.212h-1.11c-.903 0-1.356.39-1.356 1.17 0 .782.453 1.172 1.357 1.172h1.11v12.792c0 .452.123.806.37 1.063.246.257.575.385.986.385.41 0 .738-.128.985-.385.246-.257.37-.61.37-1.063V9.74h1.11c.904 0 1.356-.39 1.356-1.17 0-.782-.45-1.172-1.356-1.172h-1.11V3.853c0-.452-.123-.807-.37-1.064-.246-.257-.574-.386-.985-.386-.412 0-.74.13-.988.385-.246.256-.37.61-.37 1.063v3.545zm6.442 8.198c0 1.09.15 2.138.447 3.144a7.895 7.895 0 0 0 1.373 2.682 6.743 6.743 0 0 0 2.312 1.865c.924.462 2.013.693 3.267.693 1.418 0 2.49-.226 3.22-.678.73-.452 1.095-.935 1.095-1.448 0-.37-.097-.653-.293-.848-.195-.195-.447-.293-.755-.293a1.39 1.39 0 0 0-.602.14c-.195.09-.41.2-.647.322a4.54 4.54 0 0 1-.83.324c-.32.092-.715.138-1.188.138-.843 0-1.562-.185-2.158-.555a4.49 4.49 0 0 1-1.448-1.433 6.537 6.537 0 0 1-.817-1.942 8.8 8.8 0 0 1-.263-2.112c0-.698.087-1.402.262-2.11.173-.71.446-1.357.816-1.943a4.49 4.49 0 0 1 1.448-1.433c.596-.37 1.315-.555 2.158-.555.473 0 .858.046 1.156.14.298.09.565.19.8.292.237.102.453.2.648.292.196.092.427.138.694.138.33 0 .596-.118.8-.354a1.17 1.17 0 0 0 .31-.786c0-.555-.386-1.038-1.156-1.45-.77-.41-1.855-.615-3.252-.615-1.254 0-2.343.23-3.267.693a6.743 6.743 0 0 0-2.312 1.865 7.895 7.895 0 0 0-1.372 2.683 11.02 11.02 0 0 0-.446 3.143zm24.69 6.936c0 .452.123.806.37 1.063.246.257.575.385.986.385.41 0 .74-.128.986-.385.247-.257.37-.61.37-1.063V13.44c0-1.152-.18-2.123-.54-2.914-.36-.79-.816-1.433-1.37-1.926a5.104 5.104 0 0 0-1.835-1.064 6.347 6.347 0 0 0-1.956-.323c-.822 0-1.634.164-2.435.493-.803.33-1.5.883-2.097 1.664l-.062-.06V1.45c0-.453-.122-.808-.37-1.065-.245-.257-.574-.385-.985-.385-.41 0-.74.128-.986.385-.248.257-.37.612-.37 1.064V22.53c0 .452.122.806.37 1.063.245.257.574.385.985.385.41 0 .74-.128.986-.385.248-.257.37-.61.37-1.063v-8.94c0-.718.114-1.335.34-1.848.226-.514.52-.93.88-1.25.358-.317.764-.554 1.216-.708a4.18 4.18 0 0 1 1.356-.23c.452 0 .905.076 1.357.23.45.154.857.39 1.216.71.36.318.653.734.88 1.248.225.513.338 1.13.338 1.85v8.938zm9-9.186l10.233 10.05c.288.266.53.43.725.492.195.062.395.092.6.092.37 0 .684-.118.94-.354.258-.236.386-.52.386-.848 0-.205-.036-.39-.108-.555-.072-.164-.22-.35-.447-.554l-9.832-9.495 9-8.106c.165-.145.3-.3.402-.464.102-.164.154-.42.154-.77 0-.35-.108-.632-.324-.848-.216-.216-.498-.324-.847-.324-.288 0-.545.088-.77.262-.227.175-.463.375-.71.6l-9.4 8.6V3.114c0-.452-.124-.806-.37-1.063-.247-.257-.576-.386-.987-.386-.41 0-.74.13-.987.386-.245.257-.368.61-.368 1.063v19.42c0 .45.123.805.37 1.062.246.257.575.385.986.385.41 0 .74-.128.986-.385.247-.257.37-.61.37-1.063v-9.186zm26.91 3.298c.594 0 .995-.123 1.2-.37.206-.246.31-.606.31-1.078 0-.987-.16-1.957-.48-2.913a8.285 8.285 0 0 0-1.37-2.558 6.853 6.853 0 0 0-2.22-1.82c-.883-.46-1.88-.692-2.99-.692-1.15 0-2.183.226-3.097.678a6.857 6.857 0 0 0-2.312 1.835 8.428 8.428 0 0 0-1.45 2.68 10.02 10.02 0 0 0-.507 3.19c0 1.09.143 2.14.43 3.145.29 1.007.74 1.9 1.357 2.682a6.667 6.667 0 0 0 2.343 1.865c.945.462 2.075.693 3.39.693.802 0 1.593-.113 2.374-.34a10.65 10.65 0 0 0 2.11-.846c.628-.34 1.13-.704 1.512-1.095.38-.39.57-.75.57-1.08 0-.39-.103-.688-.308-.893-.206-.206-.432-.308-.68-.308-.245 0-.507.112-.785.338-.276.226-.615.477-1.016.755-.4.277-.9.534-1.495.77-.597.237-1.347.355-2.25.355-.76 0-1.44-.13-2.035-.385a4.482 4.482 0 0 1-1.526-1.064c-.422-.453-.74-.982-.956-1.588a5.795 5.795 0 0 1-.324-1.958h10.203zM149.42 14.61c.02-.616.118-1.233.293-1.85a4.863 4.863 0 0 1 .817-1.648c.37-.483.842-.874 1.418-1.172.575-.298 1.284-.426 2.126-.385.74 0 1.387.154 1.942.462a4.107 4.107 0 0 1 1.356 1.187c.35.483.612 1.022.786 1.618a6.33 6.33 0 0 1 .262 1.788h-9zm18.032 8.6l-1.727 4.592c-.164.473-.272.802-.323.987a1.96 1.96 0 0 0-.077.523c0 .35.128.626.385.832.257.205.54.308.848.308.35 0 .632-.097.847-.293.216-.195.375-.436.478-.724l6.843-19.573c.164-.472.267-.8.308-.986.04-.185.062-.36.062-.524 0-.35-.13-.627-.386-.832a1.326 1.326 0 0 0-.847-.307c-.35 0-.627.097-.832.292a1.83 1.83 0 0 0-.462.725l-3.7 11.25h-.06l-3.76-11.25a1.69 1.69 0 0 0-.494-.725c-.226-.195-.514-.292-.863-.292-.307 0-.59.102-.846.308-.257.206-.386.484-.386.833 0 .164.02.34.062.524.04.185.144.514.308.986l4.624 13.347zm9.586-11.374c0 .76.215 1.403.647 1.926.43.524.97.977 1.618 1.357.647.38 1.35.718 2.11 1.016.762.298 1.466.6 2.113.91.647.307 1.186.646 1.618 1.016.432.37.647.822.647 1.357 0 .553-.28 1.062-.846 1.524-.565.463-1.34.694-2.327.694-.74 0-1.367-.103-1.88-.308a7.598 7.598 0 0 1-1.357-.694c-.39-.257-.73-.488-1.017-.693a1.52 1.52 0 0 0-.894-.31c-.29 0-.545.114-.772.34-.226.226-.34.524-.34.894 0 .35.16.71.48 1.08.318.37.754.703 1.31 1 .554.3 1.206.545 1.956.74a9.58 9.58 0 0 0 2.42.293c.76 0 1.5-.102 2.22-.308a5.728 5.728 0 0 0 1.91-.94 4.838 4.838 0 0 0 1.34-1.572c.34-.627.51-1.372.51-2.235 0-.8-.216-1.47-.648-2.003a5.88 5.88 0 0 0-1.618-1.372c-.647-.38-1.35-.71-2.11-.986a41.383 41.383 0 0 1-2.113-.832c-.647-.278-1.186-.58-1.618-.91-.43-.328-.647-.73-.647-1.202 0-.698.283-1.217.848-1.556.565-.34 1.238-.51 2.02-.51.656 0 1.19.088 1.6.263.412.175.762.365 1.05.57.287.206.55.396.785.57.237.175.5.263.786.263.41 0 .718-.113.924-.34.205-.225.308-.482.308-.77 0-.432-.18-.822-.54-1.17a5.035 5.035 0 0 0-1.34-.91 8.166 8.166 0 0 0-1.772-.602 8.346 8.346 0 0 0-1.803-.215c-.68 0-1.352.097-2.02.292a5.585 5.585 0 0 0-1.787.88c-.524.39-.95.872-1.28 1.448-.328.575-.492 1.243-.492 2.003zM28.81 1.246H4.85L.657 8.86l16.17 18.617L33 8.86l-4.19-7.614zm-1.102 2.05l2.454 4.46H25.75l1.958-4.46zm-2.093-.098l-1.79 4.084-4.476-4.084h6.265zm-4.17 4.56h-9.23l4.614-4.213 4.615 4.212zm-7.136-4.56L9.832 7.282l-1.79-4.084h6.266zm-8.36.098l1.958 4.46h-4.41l2.453-4.46zM3.986 9.71h4.78l4.875 11.117L3.985 9.71zm6.913 0H22.76l-5.93 13.52-5.932-13.52zm9.12 11.117L24.894 9.71h4.78l-9.656 11.117z"/></g></svg>