<svg style="position: absolute; width: 0; height: 0; visibility: hidden;"><symbol viewBox="0 0 33 27" id="icon-sketch"><title>sketch</title><path d="M28.15 0H4.192L0 7.613l16.17 18.619L32.343 7.613 28.15 0zm-1.1 2.05l2.453 4.46h-4.411l1.957-4.46zm-2.093-.097l-1.79 4.083-4.476-4.083h6.266zm-4.17 4.558h-9.232l4.616-4.212 4.615 4.212zM13.65 1.953L9.175 6.036l-1.79-4.083h6.266zm-8.359.097L7.25 6.51H2.838l2.454-4.46zM3.327 8.463h4.779l4.876 11.118L3.327 8.463zm6.913 0h11.862l-5.931 13.52-5.931-13.52zm9.12 11.118l4.876-11.118h4.779L19.36 19.581z" fill="#000" fill-rule="evenodd"/></symbol><symbol viewBox="0 0 31 27" id="icon-twitter__arrow"><title>twitter__arrow</title><path d="M0 13.54c0 .652.53 1.18 1.18 1.18h25.416L16.333 24.986a1.18 1.18 0 1 0 1.665 1.668l12.335-12.335a1.18 1.18 0 0 0 0-1.668L18 .318a1.18 1.18 0 1 0-1.667 1.668L26.707 12.36H1.18c-.65 0-1.18.53-1.18 1.18z" fill="currentColor" fill-rule="evenodd"/></symbol><symbol viewBox="0 0 47 38" id="icon-twitter__logo"><title>twitter__logo</title><path d="M46.54 4.433a18.902 18.902 0 0 1-5.43 1.488A9.482 9.482 0 0 0 45.265.69a18.932 18.932 0 0 1-6.003 2.295A9.442 9.442 0 0 0 32.363 0c-5.22 0-9.454 4.233-9.454 9.453 0 .74.083 1.463.244 2.155C15.297 11.213 8.33 7.45 3.67 1.73a9.41 9.41 0 0 0-1.28 4.753 9.45 9.45 0 0 0 4.204 7.868 9.416 9.416 0 0 1-4.282-1.18v.118c0 4.58 3.258 8.4 7.583 9.27a9.466 9.466 0 0 1-4.27.16 9.463 9.463 0 0 0 8.832 6.567 18.968 18.968 0 0 1-11.74 4.046A19.23 19.23 0 0 1 .46 33.2a26.758 26.758 0 0 0 14.492 4.247c17.39 0 26.897-14.405 26.897-26.898 0-.41-.01-.818-.028-1.223a19.214 19.214 0 0 0 4.717-4.894" fill="currentColor" fill-rule="evenodd"/></symbol><symbol viewBox="0 0 44 32" id="icon-xcode"><title>xcode</title><g fill="none" fill-rule="evenodd"><path d="M29.678 12.474L28.627 5.84.085 10.36l3.069 19.373 20.582-3.26 5.942-13.999z" fill="#000"/><path d="M8.627 20.239l-.335-2.118a.357.357 0 0 1 .294-.408l3.697-.586-1.163 3.079-2.086.33a.357.357 0 0 1-.407-.297zm3.32 3.918l-1.051.996c-.142.134-.265.083-.273-.113l-.062-1.41c-.009-.196.133-.3.315-.229l.996.384c.182.07.217.239.075.372zm.16-.825l-.997-.384a.358.358 0 0 1-.205-.46l3.052-8.088a.354.354 0 0 1 .459-.206l.995.382a.36.36 0 0 1 .205.462l-3.052 8.09a.355.355 0 0 1-.458.204zm2.709-3.711l1.162-3.078.927-.147 1.754 2.616-3.843.609zm5.374.012c-.395-.126-2.885-4.07-3.527-5.1-.641-1.031-2.516-3.747-2.096-4.048.298-.216 1.83 1.915 2.922 3.166s3.482 4.546 3.771 4.918c.288.374-.096.785-.323.925-.228.14-.353.263-.747.139zm1.504 1.756l-.69-.79a.352.352 0 0 1 .051-.523l.482-.354a.39.39 0 0 1 .542.09l.566.773c.13.174.1.429-.06.564l-.339.286a.397.397 0 0 1-.552-.046zm2.387 1.975c-.174-.352-1.054-.238-1.536-.735-.483-.494-.202-.832-.086-.987 1.45-1.156 1.622 1.722 1.622 1.722zm-.041-5.566a.356.356 0 0 1-.295.408l-1.85.293a1.075 1.075 0 0 0-.16-.302c-.062-.08-.22-.295-.442-.594a283.7 283.7 0 0 0-1.267-1.701l3.271-.518a.357.357 0 0 1 .407.297l.335 2.117z" fill="#FFF"/><g fill="#000"><path d="M43.24 4.082s.15-.369-.218-.517c-.822-.332-1.795-.296-2.353-.522-.735-.297-1.54-1.478-2.64-1.923-2.575-1.04-4.043-1.634-10.02 1.526l1.101.445c4.35-1.245 5.583-2.088 4.828 1.895l3.546 1.432s1.494-2.845 3.379-.704c.206.234.233.504.967.8.368.15.516-.219.516-.219l.895-2.213zM33.22 6.765c.119-.297.534-.474.83-.355l1.182.478 1.182.478c.295.119.471.535.351.831-.544 1.347-1.703 3.366-2.691 5.811-2.503 6.195-5.506 14.479-6.413 16.725-.12.296-.536.473-.831.354l-1.182-.478-1.182-.477c-.296-.12-.471-.536-.352-.832.908-2.246 4.502-10.291 7.005-16.486.987-2.444 1.556-4.703 2.1-6.05z"/></g></g></symbol></svg>