<svg style="position: absolute; width: 0; height: 0; visibility: hidden;"><symbol viewBox="0 0 18 17" id="icon-close-popup"><title>close-popup</title><path d="M8.98 7.077L2.244.342A1.02 1.02 0 1 0 .8 1.786L7.537 8.52.801 15.257A1.02 1.02 0 1 0 2.244 16.7L8.98 9.965l6.735 6.735a1.02 1.02 0 1 0 1.444-1.444l-6.735-6.735 6.735-6.735A1.02 1.02 0 1 0 15.715.342L8.98 7.077z" fill="currentColor" fill-rule="evenodd"/></symbol><symbol viewBox="0 0 23 15" id="icon-email"><title>email</title><path d="M1.705 0C.778 0 0 .778 0 1.705v11.59C0 14.222.778 15 1.705 15h19.09c.927 0 1.705-.778 1.705-1.705V1.705C22.5.778 21.722 0 20.795 0H1.705zm2.088 2.045h14.914L11.25 8.523 3.793 2.045zM2.045 3.24l8.534 7.415c.385.333.957.333 1.342 0l8.534-7.415v9.716H2.045V3.239z" fill="currentColor" fill-rule="evenodd"/></symbol><symbol viewBox="0 0 31 27" id="icon-twitter__arrow"><title>twitter__arrow</title><path d="M0 13.54c0 .652.53 1.18 1.18 1.18h25.416L16.333 24.986a1.18 1.18 0 1 0 1.665 1.668l12.335-12.335a1.18 1.18 0 0 0 0-1.668L18 .318a1.18 1.18 0 1 0-1.667 1.668L26.707 12.36H1.18c-.65 0-1.18.53-1.18 1.18z" fill="currentColor" fill-rule="evenodd"/></symbol><symbol viewBox="0 0 47 38" id="icon-twitter__logo"><title>twitter__logo</title><path d="M46.54 4.433a18.902 18.902 0 0 1-5.43 1.488A9.482 9.482 0 0 0 45.265.69a18.932 18.932 0 0 1-6.003 2.295A9.442 9.442 0 0 0 32.363 0c-5.22 0-9.454 4.233-9.454 9.453 0 .74.083 1.463.244 2.155C15.297 11.213 8.33 7.45 3.67 1.73a9.41 9.41 0 0 0-1.28 4.753 9.45 9.45 0 0 0 4.204 7.868 9.416 9.416 0 0 1-4.282-1.18v.118c0 4.58 3.258 8.4 7.583 9.27a9.466 9.466 0 0 1-4.27.16 9.463 9.463 0 0 0 8.832 6.567 18.968 18.968 0 0 1-11.74 4.046A19.23 19.23 0 0 1 .46 33.2a26.758 26.758 0 0 0 14.492 4.247c17.39 0 26.897-14.405 26.897-26.898 0-.41-.01-.818-.028-1.223a19.214 19.214 0 0 0 4.717-4.894" fill="currentColor" fill-rule="evenodd"/></symbol><symbol viewBox="0 0 102 73" id="icon-xcode"><title>xcode</title><g fill="none" fill-rule="evenodd"><path d="M69.968 28.494L67.514 13 .351 23.64l7.196 45.434 48.454-7.675 13.967-32.904z" fill="#0433ff"/><path d="M20.438 46.798l-.786-4.966a.838.838 0 0 1 .693-.959l8.698-1.377-2.74 7.222-4.909.777a.839.839 0 0 1-.956-.697zm7.806 9.186L25.77 58.32c-.333.316-.623.195-.642-.265l-.145-3.304c-.02-.462.314-.704.743-.54l2.343.9c.429.164.509.56.175.873zm.376-1.936l-2.344-.898a.838.838 0 0 1-.48-1.081l7.19-18.972a.834.834 0 0 1 1.079-.484l2.343.895a.843.843 0 0 1 .481 1.083L29.7 53.567a.837.837 0 0 1-1.079.481zM35 45.34l2.739-7.22 2.18-.345 4.124 6.133-9.042 1.432zm12.645.023c-.93-.296-6.783-9.543-8.291-11.959-1.508-2.416-5.916-8.784-4.928-9.49.702-.506 4.302 4.49 6.872 7.421 2.567 2.934 8.188 10.658 8.867 11.532.676.876-.228 1.84-.763 2.17-.535.328-.83.617-1.757.326zm3.537 4.116l-1.62-1.85c-.335-.385-.28-.934.119-1.227l1.133-.833a.92.92 0 0 1 1.275.212l1.332 1.81c.304.41.235 1.007-.142 1.325l-.798.67a.935.935 0 0 1-1.3-.107zm5.615 4.63c-.409-.826-2.481-.557-3.614-1.721-1.135-1.16-.475-1.952-.201-2.315 3.412-2.714 3.815 4.037 3.815 4.037zm-.091-13.056a.837.837 0 0 1-.694.96l-4.353.689a2.515 2.515 0 0 0-.376-.709c-.146-.185-.519-.691-1.04-1.392a664.554 664.554 0 0 0-2.98-3.989l7.699-1.22a.84.84 0 0 1 .956.698l.786 4.964h.002z" fill="#FFF"/><g fill="#0433ff"><path d="M101.844 8.92s.35-.865-.517-1.215c-1.934-.781-4.22-.699-5.535-1.23-1.728-.698-3.624-3.474-6.216-4.52C83.52-.494 80.065-1.89 66.013 5.506l2.594 1.048c10.225-2.909 13.125-4.884 11.36 4.459l8.344 3.371s3.505-6.673 7.944-1.643c.486.55.55 1.183 2.277 1.88.866.35 1.215-.512 1.215-.512l2.097-5.19zM78.28 15.186c.282-.695 1.258-1.11 1.953-.829l2.782 1.124 2.781 1.124c.696.281 1.11 1.257.83 1.953-1.277 3.158-3.999 7.893-6.315 13.627C74.44 46.712 67.4 66.14 65.273 71.407c-.281.696-1.258 1.11-1.953.83l-2.782-1.125-2.781-1.124c-.696-.28-1.11-1.257-.829-1.952 2.128-5.267 10.56-24.134 16.429-38.661 2.316-5.734 3.648-11.03 4.924-14.189z"/></g></g></symbol></svg>