<svg style="position: absolute; width: 0; height: 0; visibility: hidden;"><symbol id="icon-photoshop"><title>photoshop</title><g fill="#000" fill-rule="evenodd"><path d="M10.146 24.008a1.07 1.07 0 0 1-1.078-1.06v-10.46a1.07 1.07 0 0 1 1.078-1.059 1.07 1.07 0 0 1 1.077 1.059v10.46c0 .586-.484 1.06-1.077 1.06z"/><path d="M13.145 20.017a1.07 1.07 0 0 1-1.077-1.059c0-.583.483-1.059 1.077-1.059 1.22 0 2.214-.975 2.214-2.176 0-1.2-.992-2.179-2.214-2.179h-3.002a1.07 1.07 0 0 1-1.077-1.059 1.07 1.07 0 0 1 1.077-1.058h3.002c2.408 0 4.369 1.926 4.369 4.296 0 2.368-1.96 4.294-4.369 4.294zM21.573 24.01c-1.187 0-2.317-.63-2.8-1.682a1.053 1.053 0 0 1 .538-1.401 1.088 1.088 0 0 1 1.426.529c.175.382.816.549 1.29.343.488-.218.573-.73.508-.953-.045-.153-.217-.527-.992-.589-2.003-.154-2.79-1.453-2.945-2.196-.327-1.103.217-2.72 1.718-3.39a3.389 3.389 0 0 1 2.316-.132c.825.25 1.486.81 1.82 1.532a1.055 1.055 0 0 1-.538 1.402 1.089 1.089 0 0 1-1.427-.53c-.107-.232-.353-.338-.488-.38a1.167 1.167 0 0 0-.795.04c-.497.22-.58.73-.514.953.044.155.217.53.992.591 2.002.154 2.79 1.453 2.945 2.196.324 1.1-.217 2.72-1.715 3.39-.434.189-.89.277-1.34.277z"/><path d="M5.199 31.421c-.27 0-.536-.095-.744-.291L.454 27.375a1.06 1.06 0 0 1-.334-.767V1.637A1.07 1.07 0 0 1 1.197.579h22.378a1.07 1.07 0 0 1 1.077 1.058v3.706a1.07 1.07 0 0 1-1.077 1.059 1.07 1.07 0 0 1-1.078-1.059V2.696H2.274v23.459l3.668 3.44c.43.405.446 1.074.037 1.498a1.087 1.087 0 0 1-.78.328z"/><path d="M28.803 31.421H5.2a1.07 1.07 0 0 1-1.078-1.058V9.513A1.07 1.07 0 0 1 5.2 8.452a1.07 1.07 0 0 1 1.077 1.06v19.79h21.45V6.514H5.2c-.282 0-.549-.109-.75-.3L.445 2.397A1.047 1.047 0 0 1 .424.9 1.094 1.094 0 0 1 1.947.877l3.688 3.518h23.168a1.07 1.07 0 0 1 1.077 1.058v24.91c0 .585-.48 1.058-1.077 1.058z"/></g></symbol><symbol viewBox="0 0 33 27" id="icon-sketch"><title>sketch</title><path d="M28.15 0H4.192L0 7.613l16.17 18.619L32.343 7.613 28.15 0zm-1.1 2.05l2.453 4.46h-4.411l1.957-4.46zm-2.093-.097l-1.79 4.083-4.476-4.083h6.266zm-4.17 4.558h-9.232l4.616-4.212 4.615 4.212zM13.65 1.953L9.175 6.036l-1.79-4.083h6.266zm-8.359.097L7.25 6.51H2.838l2.454-4.46zM3.327 8.463h4.779l4.876 11.118L3.327 8.463zm6.913 0h11.862l-5.931 13.52-5.931-13.52zm9.12 11.118l4.876-11.118h4.779L19.36 19.581z" fill="#000" fill-rule="evenodd"/></symbol><symbol viewBox="0 0 31 27" id="icon-twitter__arrow"><title>twitter__arrow</title><path d="M0 13.54c0 .652.53 1.18 1.18 1.18h25.416L16.333 24.986a1.18 1.18 0 1 0 1.665 1.668l12.335-12.335a1.18 1.18 0 0 0 0-1.668L18 .318a1.18 1.18 0 1 0-1.667 1.668L26.707 12.36H1.18c-.65 0-1.18.53-1.18 1.18z" fill="currentColor" fill-rule="evenodd"/></symbol><symbol viewBox="0 0 47 38" id="icon-twitter__logo"><title>twitter__logo</title><path d="M46.54 4.433a18.902 18.902 0 0 1-5.43 1.488A9.482 9.482 0 0 0 45.265.69a18.932 18.932 0 0 1-6.003 2.295A9.442 9.442 0 0 0 32.363 0c-5.22 0-9.454 4.233-9.454 9.453 0 .74.083 1.463.244 2.155C15.297 11.213 8.33 7.45 3.67 1.73a9.41 9.41 0 0 0-1.28 4.753 9.45 9.45 0 0 0 4.204 7.868 9.416 9.416 0 0 1-4.282-1.18v.118c0 4.58 3.258 8.4 7.583 9.27a9.466 9.466 0 0 1-4.27.16 9.463 9.463 0 0 0 8.832 6.567 18.968 18.968 0 0 1-11.74 4.046A19.23 19.23 0 0 1 .46 33.2a26.758 26.758 0 0 0 14.492 4.247c17.39 0 26.897-14.405 26.897-26.898 0-.41-.01-.818-.028-1.223a19.214 19.214 0 0 0 4.717-4.894" fill="currentColor" fill-rule="evenodd"/></symbol></svg>