<svg style="position: absolute; width: 0; height: 0; visibility: hidden;"><symbol viewBox="0 0 31 27" id="icon-twitter__arrow"><title>twitter__arrow</title><path d="M0 13.54c0 .652.53 1.18 1.18 1.18h25.416L16.333 24.986a1.18 1.18 0 1 0 1.665 1.668l12.335-12.335a1.18 1.18 0 0 0 0-1.668L18 .318a1.18 1.18 0 1 0-1.667 1.668L26.707 12.36H1.18c-.65 0-1.18.53-1.18 1.18z" fill="currentColor" fill-rule="evenodd"/></symbol><symbol viewBox="0 0 47 38" id="icon-twitter__logo"><title>twitter__logo</title><path d="M46.54 4.433a18.902 18.902 0 0 1-5.43 1.488A9.482 9.482 0 0 0 45.265.69a18.932 18.932 0 0 1-6.003 2.295A9.442 9.442 0 0 0 32.363 0c-5.22 0-9.454 4.233-9.454 9.453 0 .74.083 1.463.244 2.155C15.297 11.213 8.33 7.45 3.67 1.73a9.41 9.41 0 0 0-1.28 4.753 9.45 9.45 0 0 0 4.204 7.868 9.416 9.416 0 0 1-4.282-1.18v.118c0 4.58 3.258 8.4 7.583 9.27a9.466 9.466 0 0 1-4.27.16 9.463 9.463 0 0 0 8.832 6.567 18.968 18.968 0 0 1-11.74 4.046A19.23 19.23 0 0 1 .46 33.2a26.758 26.758 0 0 0 14.492 4.247c17.39 0 26.897-14.405 26.897-26.898 0-.41-.01-.818-.028-1.223a19.214 19.214 0 0 0 4.717-4.894" fill="currentColor" fill-rule="evenodd"/></symbol></svg>